<?xml version="1.0" encoding="UTF-8"?>
<svg id="Layer_2" data-name="Layer 2" xmlns="http://www.w3.org/2000/svg" viewBox="0 0 523.87 110.92">
  <defs>
    <style>
      .cls-1 {
        fill: #2E3192;
        stroke-width: 0px;
      }
    </style>
  </defs>
  <g id="Layer_1-2" data-name="Layer 1">
    <g>
      <g>
        <path class="cls-1" d="m350.45,79.51c-3.74,4.54-8.39,6.8-13.94,6.8-2.6,0-4.96-.43-7.07-1.29s-3.93-2.07-5.45-3.63c-1.52-1.56-2.7-3.44-3.54-5.62s-1.25-4.59-1.25-7.23.44-5.17,1.32-7.47c.88-2.29,2.12-4.25,3.73-5.88,1.61-1.63,3.52-2.91,5.75-3.83,2.22-.93,4.66-1.39,7.3-1.39,4.27,0,7.58,1.16,9.91,3.47,2.33,2.31,3.5,5.63,3.5,9.94,0,.62-.12.99-.36,1.12-.24.13-.8.2-1.68.2h-21.74c-.09.35-.15.78-.2,1.29-.04.51-.07,1.07-.07,1.68,0,2.29.27,4.37.83,6.24.55,1.87,1.34,3.47,2.38,4.79,1.03,1.32,2.27,2.35,3.7,3.07,1.43.73,3.03,1.09,4.79,1.09,1.85,0,3.57-.41,5.15-1.22,1.59-.81,3.21-2.15,4.89-4l2.05,1.85Zm-10.9-17.84c.88,0,1.59-.02,2.11-.07.53-.04.92-.13,1.19-.26.26-.13.44-.32.53-.56.09-.24.13-.56.13-.96,0-2.03-.65-3.64-1.95-4.86-1.3-1.21-3.07-1.82-5.32-1.82-4.76,0-7.71,2.84-8.85,8.52h12.16Z"/>
        <path class="cls-1" d="m368.09,75.28c0,1.81.04,3.23.13,4.26.09,1.04.32,1.83.69,2.38.37.55.92.91,1.65,1.09.73.18,1.73.31,3.01.4v2.25h-17.31v-2.25c1.23-.09,2.21-.22,2.94-.4.73-.18,1.29-.53,1.68-1.06.4-.53.65-1.28.76-2.25.11-.97.17-2.29.17-3.96v-8.79c0-5.24-.13-8.43-.4-9.58-.13-.57-.3-1.05-.5-1.42-.2-.37-.5-.66-.89-.86s-.9-.33-1.52-.4c-.62-.07-1.41-.1-2.38-.1v-2.11l10.57-2.51.79,6.54h.26c1.67-2.07,3.63-3.68,5.88-4.82,2.25-1.14,4.69-1.72,7.33-1.72,2.03,0,3.88.33,5.55.99,1.67.66,2.95,1.56,3.83,2.71.75,1.01,1.28,2.32,1.59,3.93.31,1.61.46,3.82.46,6.64v11.03c0,1.81.05,3.23.17,4.26.11,1.04.34,1.83.69,2.38.35.55.89.91,1.62,1.09.73.18,1.68.31,2.87.4v2.25h-17.11v-2.25c1.23-.04,2.21-.17,2.94-.36.73-.2,1.28-.56,1.65-1.09.37-.53.62-1.29.73-2.28.11-.99.17-2.3.17-3.93v-8.72c0-2.51-.13-4.62-.4-6.34-.26-1.72-.69-3.11-1.29-4.16-.59-1.06-1.38-1.82-2.35-2.28-.97-.46-2.14-.69-3.5-.69-1.98,0-3.8.52-5.45,1.55-1.65,1.04-2.94,2.46-3.86,4.26-.22.44-.41.86-.56,1.25-.16.4-.28.86-.36,1.39-.09.53-.16,1.13-.2,1.82-.04.68-.07,1.55-.07,2.61v8.85Z"/>
        <path class="cls-1" d="m413.61,75.28c0,1.81.04,3.23.13,4.26.09,1.04.32,1.83.69,2.38.37.55.92.91,1.65,1.09.73.18,1.73.31,3.01.4v2.25h-17.31v-2.25c1.23-.09,2.21-.22,2.94-.4.73-.18,1.29-.53,1.68-1.06.4-.53.65-1.28.76-2.25.11-.97.17-2.29.17-3.96v-8.79c0-5.24-.13-8.43-.4-9.58-.13-.57-.3-1.05-.5-1.42-.2-.37-.5-.66-.89-.86s-.9-.33-1.52-.4c-.62-.07-1.41-.1-2.38-.1v-2.11l10.57-2.51.79,6.54h.26c1.67-2.07,3.63-3.68,5.88-4.82,2.25-1.14,4.69-1.72,7.33-1.72,2.03,0,3.88.33,5.55.99,1.67.66,2.95,1.56,3.83,2.71.75,1.01,1.28,2.32,1.59,3.93.31,1.61.46,3.82.46,6.64v11.03c0,1.81.05,3.23.17,4.26.11,1.04.34,1.83.69,2.38.35.55.89.91,1.62,1.09.73.18,1.68.31,2.87.4v2.25h-17.11v-2.25c1.23-.04,2.21-.17,2.94-.36.73-.2,1.28-.56,1.65-1.09.37-.53.62-1.29.73-2.28.11-.99.17-2.3.17-3.93v-8.72c0-2.51-.13-4.62-.4-6.34-.26-1.72-.69-3.11-1.29-4.16-.59-1.06-1.38-1.82-2.35-2.28-.97-.46-2.14-.69-3.5-.69-1.98,0-3.8.52-5.45,1.55-1.65,1.04-2.94,2.46-3.86,4.26-.22.44-.41.86-.56,1.25-.16.4-.28.86-.36,1.39-.09.53-.16,1.13-.2,1.82-.04.68-.07,1.55-.07,2.61v8.85Z"/>
        <path class="cls-1" d="m479.35,79.51c-3.74,4.54-8.39,6.8-13.94,6.8-2.6,0-4.96-.43-7.07-1.29s-3.93-2.07-5.45-3.63c-1.52-1.56-2.7-3.44-3.54-5.62s-1.25-4.59-1.25-7.23.44-5.17,1.32-7.47c.88-2.29,2.12-4.25,3.73-5.88,1.61-1.63,3.52-2.91,5.75-3.83,2.22-.93,4.66-1.39,7.3-1.39,4.27,0,7.58,1.16,9.91,3.47,2.33,2.31,3.5,5.63,3.5,9.94,0,.62-.12.99-.36,1.12-.24.13-.8.2-1.68.2h-21.74c-.09.35-.15.78-.2,1.29-.04.51-.07,1.07-.07,1.68,0,2.29.27,4.37.83,6.24.55,1.87,1.34,3.47,2.38,4.79,1.03,1.32,2.27,2.35,3.7,3.07,1.43.73,3.03,1.09,4.79,1.09,1.85,0,3.57-.41,5.15-1.22,1.59-.81,3.21-2.15,4.89-4l2.05,1.85Zm-10.9-17.84c.88,0,1.59-.02,2.11-.07.53-.04.92-.13,1.19-.26.26-.13.44-.32.53-.56.09-.24.13-.56.13-.96,0-2.03-.65-3.64-1.95-4.86-1.3-1.21-3.07-1.82-5.32-1.82-4.76,0-7.71,2.84-8.85,8.52h12.16Z"/>
        <path class="cls-1" d="m496.52,75.34c0,1.67.07,3.02.2,4.03.13,1.01.41,1.81.83,2.38.42.57,1.01.97,1.78,1.19.77.22,1.79.35,3.07.4v2.31h-18.23v-2.31c1.32-.04,2.38-.19,3.17-.43.79-.24,1.42-.63,1.88-1.16.46-.53.77-1.27.92-2.21.15-.95.23-2.19.23-3.73v-28.48c0-2.38-.03-4.37-.1-5.98-.07-1.61-.17-2.7-.3-3.27-.22-1.01-.74-1.69-1.55-2.05-.82-.35-2.28-.53-4.39-.53v-2.25l12.49-2.44v44.53Z"/>
        <path class="cls-1" d="m517.99,75.34c0,1.67.07,3.02.2,4.03.13,1.01.41,1.81.83,2.38.42.57,1.01.97,1.78,1.19.77.22,1.79.35,3.07.4v2.31h-18.23v-2.31c1.32-.04,2.38-.19,3.17-.43.79-.24,1.42-.63,1.88-1.16.46-.53.77-1.27.92-2.21.15-.95.23-2.19.23-3.73v-28.48c0-2.38-.03-4.37-.1-5.98-.07-1.61-.17-2.7-.3-3.27-.22-1.01-.74-1.69-1.55-2.05-.82-.35-2.28-.53-4.39-.53v-2.25l12.49-2.44v44.53Z"/>
      </g>
      <path class="cls-1" d="m355.74,10.59c-12.24,3.5-22.1,17.33-29.73,31.8l-6.2,11.29c3.82,0,5.09.32,9.54-1.75,0,0,.79-.32,1.11.64.32,1.43-.79,2.07-2.23,2.54-.95.32-5.88.64-9.7.64l-7.63,14.31c-14.15,26.71-25.12,40.86-48.49,40.86-5.88,0-16.38-1.75-20.83-7.79-1.11-1.59-1.27-2.07-1.75-3.34-.64-1.75,1.43-3.02,2.86-1.59,6.2,8.59,11.45,10.97,19.71,10.33,17.33-.95,29.73-17.49,39.11-35.3l9.38-17.97c-4.13.16-5.25.16-7,.48-.64.16-2.07,1.75-2.86,1.27-.32-.16-.79-.64-.79-1.11,0-1.11.48-1.43,2.07-2.23.79-.32,2.7-.64,3.34-.64h6.84l2.23-3.82c16.54-28.94,28.46-35.14,34.66-38.32l-23.37-2.23c-17.97-1.75-42.61-2.86-59.94,20.03-6.52,8.27-11.29,22.74-8.27,31.16,1.75,5.09,5.25,8.74,10.97,9.86,7,1.43,14.79-1.27,21.46-8.27,8.27-8.59,8.9-15.9,10.97-25.28.48-1.59,2.54-1.11,3.02.48.64,1.43-.16,3.18-.48,4.77-1.43,9.86-8.9,22.1-20.51,28.3-6.2,3.34-13.67,4.29-19.72,1.27-5.41-2.7-8.43-8.11-9.06-13.36-1.91-11.61,5.72-28.46,16.22-38.79,16.38-16.22,38.48-17.97,57.08-15.1l21.15,3.98c2.54.48,3.02.64,4.93.95,1.27-.32,2.23-.64,4.61-1.91,2.7-1.27,6.36-2.7,9.7-3.34,1.43-.16,6.68-.95,6.84,2.38.16,3.02-12.08,5.56-19.24,4.77Z"/>
    </g>
    <g>
      <g>
        <path class="cls-1" d="m110.46,76.41c0,1.72.08,3.1.23,4.13.15,1.04.45,1.85.89,2.44.44.59,1.06,1,1.85,1.22.79.22,1.85.35,3.17.4v2.31h-18.96v-2.31c1.32-.04,2.4-.19,3.24-.43.84-.24,1.49-.64,1.95-1.19.46-.55.77-1.32.92-2.31.15-.99.23-2.26.23-3.8v-8.46c0-2.55-.03-4.66-.1-6.31-.07-1.65-.19-2.79-.36-3.4-.22-1.01-.73-1.71-1.52-2.08-.79-.37-2.29-.56-4.49-.56v-2.31l12.95-2.51v25.17Zm-7.6-38.58c0-1.14.4-2.11,1.19-2.91s1.76-1.19,2.91-1.19,2.11.4,2.91,1.19c.79.79,1.19,1.76,1.19,2.91s-.4,2.11-1.19,2.91c-.79.79-1.76,1.19-2.91,1.19s-2.11-.4-2.91-1.19c-.79-.79-1.19-1.76-1.19-2.91Z"/>
        <path class="cls-1" d="m140.98,64.52v-2.71c0-5.37-2.29-8.06-6.87-8.06-.75,0-1.39.07-1.92.2-.53.13-.97.35-1.32.66-.35.31-.67.75-.96,1.32-.29.57-.56,1.28-.83,2.11-.49,1.28-.96,2.13-1.42,2.54-.46.42-1.13.63-2.02.63-2.2,0-3.3-1.1-3.3-3.3s1.12-3.75,3.37-4.92c2.25-1.17,5.44-1.75,9.58-1.75,4.4,0,7.53.78,9.38,2.35,1.85,1.56,2.77,4.22,2.77,7.96v14.8c0,5.02.99,7.53,2.97,7.53.62,0,1.21-.08,1.78-.23.57-.15,1.06-.56,1.45-1.22l.92,1.59c-.53,1.01-1.5,1.86-2.91,2.54-1.41.68-2.88,1.02-4.43,1.02-1.94,0-3.38-.62-4.33-1.85-.95-1.23-1.42-2.97-1.42-5.22h-.33c-1.15,2.16-2.73,3.87-4.76,5.12-2.03,1.25-4.27,1.88-6.74,1.88-2.77,0-4.96-.7-6.54-2.11-1.59-1.41-2.38-3.3-2.38-5.68,0-1.06.19-2.07.56-3.04.37-.97.98-1.89,1.82-2.77.84-.88,1.94-1.75,3.3-2.61,1.36-.86,3.04-1.73,5.02-2.61l9.51-4.16Zm0,2.84c-2.51.97-4.64,1.92-6.38,2.84-1.74.92-3.14,1.85-4.2,2.77-1.06.92-1.82,1.85-2.28,2.77-.46.93-.69,1.87-.69,2.84,0,1.45.48,2.64,1.45,3.57.97.92,2.25,1.39,3.83,1.39,1.15,0,2.21-.29,3.2-.86.99-.57,1.86-1.35,2.61-2.35.75-.99,1.34-2.16,1.78-3.5.44-1.34.66-2.76.66-4.26v-5.22Z"/>
        <path class="cls-1" d="m169.13,76.34c0,1.85.04,3.3.13,4.36.09,1.06.32,1.86.69,2.41.37.55.91.91,1.62,1.09.7.18,1.7.31,2.97.4v2.31h-17.57v-2.31c1.28-.09,2.29-.22,3.04-.4.75-.18,1.32-.53,1.72-1.06.4-.53.65-1.29.76-2.28.11-.99.17-2.32.17-4v-8.46c0-2.51-.03-4.6-.1-6.28-.07-1.67-.19-2.82-.36-3.44-.13-.57-.29-1.02-.46-1.35-.18-.33-.46-.59-.86-.79s-.92-.33-1.55-.4c-.64-.07-1.46-.1-2.48-.1v-2.31l10.77-2.51.86,6.61h.33c1.98-2.25,4.06-3.91,6.24-4.99,2.18-1.08,4.59-1.62,7.23-1.62,2.77,0,5.11.56,7,1.69,1.89,1.12,3.21,2.74,3.96,4.86h.26c1.63-2.07,3.61-3.68,5.95-4.82,2.33-1.14,4.82-1.72,7.46-1.72,2.07,0,3.95.34,5.65,1.02,1.69.68,2.98,1.62,3.86,2.81.79,1.01,1.35,2.35,1.69,4,.33,1.65.5,3.91.5,6.77v10.5c0,1.81.05,3.24.17,4.29.11,1.06.34,1.87.69,2.44.35.57.89.95,1.62,1.12.73.18,1.73.31,3.01.4v2.31h-17.57v-2.31c1.23-.04,2.22-.17,2.97-.36.75-.2,1.32-.57,1.72-1.12.4-.55.65-1.31.76-2.28.11-.97.17-2.29.17-3.96v-8.32c0-2.51-.13-4.63-.4-6.38-.26-1.74-.71-3.15-1.32-4.23-.62-1.08-1.42-1.86-2.41-2.35-.99-.48-2.19-.73-3.6-.73-1.94,0-3.76.54-5.45,1.62-1.7,1.08-3.03,2.52-4,4.33-.22.44-.41.87-.56,1.29-.15.42-.28.88-.36,1.39-.09.51-.14,1.11-.17,1.82-.02.71-.03,1.59-.03,2.64v8.39c0,1.81.04,3.24.13,4.29.09,1.06.32,1.87.69,2.44.37.57.94.95,1.68,1.12.75.18,1.76.31,3.04.4v2.31h-17.57v-2.31c1.23-.09,2.22-.22,2.97-.4.75-.18,1.31-.53,1.68-1.06.37-.53.62-1.29.73-2.28.11-.99.17-2.32.17-4v-8.32c0-2.55-.13-4.7-.4-6.44-.26-1.74-.69-3.15-1.29-4.23-.59-1.08-1.38-1.85-2.34-2.31-.97-.46-2.16-.69-3.57-.69-1.98,0-3.84.54-5.58,1.62-1.74,1.08-3.05,2.52-3.93,4.33-.22.44-.41.87-.56,1.29-.15.42-.28.88-.36,1.39-.09.51-.14,1.11-.17,1.82-.02.71-.03,1.59-.03,2.64v8.39Z"/>
      </g>
      <path class="cls-1" d="m62.55,102.52c12.16,3.84,24.15,4,35.03.96.32-.16.48,0,.8.48.32.64-.16.96-.32.96-16.95,7.52-38.07,3.84-51.02-1.92-10.24,4.96-31.67,10.24-42.06,4.16-2.88-1.76-4.8-4-4.96-6.56-.16-2.08.96-4.48,3.52-6.4,8.32-6.08,29.91-.96,39.19,2.08l6.24,1.76c8-7.36,15.19-18.07,23.51-32.47-12.16,3.52-35.67,3.36-47.98-7.52-6.4-5.92-9.12-15.67-8.16-21.59,2.08-13.27,11.84-23.99,26.39-30.71,9.28-4.48,30.39-7.2,38.71.48,0,0,.32.96-.16,1.44-.8.8-1.76.32-1.76.32-8.8-5.92-23.67-3.68-32.15,0-12.32,5.6-23.35,15.67-25.43,28.47-.8,5.6.96,13.28,7.2,19.03,10.72,9.6,33.75,9.92,45.58,7.2,0,0,9.28-15.83,15.35-25.43C107.18,10.56,119.65.16,131.65,0c2.88,0,5.28.48,7.2,2.88,1.76,2.24,1.76,5.6.96,9.12-4.8,19.03-26.07,36.47-46.86,46.7,0,0-8.96,4.32-10.88,5.44-1.44,2.56-4.96,7.52-8,11.84-7.36,10.24-12.8,16.63-21.27,22.87l9.76,3.68Zm-59.18-2.88c-.32,1.76.48,3.2,2.24,4.8,7.52,6.4,30.55.48,38.55-2.4-10.56-4.64-26.39-9.44-34.39-7.2-3.36.8-5.76,2.56-6.4,4.8ZM136.77,5.12c-1.28-1.76-3.36-2.56-5.28-2.56-9.28,0-23.19,18.39-27.83,25.75l-19.51,31.67c17.75-7.68,43.34-25.91,51.18-44.94,1.6-3.52,2.56-8,1.44-9.92Z"/>
      <path class="cls-1" d="m108.62,47.01h1.84v8.9h-6.36v-4.38c0-2.49,2.02-4.52,4.52-4.52Z"/>
    </g>
  </g>
</svg>