<?xml version="1.0" encoding="UTF-8"?>
<svg id="Layer_2" data-name="Layer 2" xmlns="http://www.w3.org/2000/svg" viewBox="0 0 321.93 280.96">
  <defs>
    <style>
      .cls-1 {
        fill: #2E3192;
        stroke-width: 0px;
      }
    </style>
  </defs>
  <g id="Layer_1-2" data-name="Layer 1">
    <g id="Layer_1-2" data-name="Layer 1-2">
      <g>
        <path class="cls-1" d="m262.88,160.63h59.05v119.82h-59.05v-19.91h38.52v-79.4c-13.07-.56-25.84.41-38.52-.52v-19.99Z"/>
        <path class="cls-1" d="m59.24,58.88h-18.3c-.55-12.7.03-25.45-.31-38.52h-20c-.1-3.52-.22-6.76-.26-10-.04-3.34,0-6.69,0-10.36h140.69v20.02H59.24v38.85h0Z"/>
        <path class="cls-1" d="m20.36,221.69H.88c-.18-.19-.42-.39-.58-.65-.15-.24-.28-.53-.28-.8-.02-19.67-.02-39.34-.02-59.61h99.97v20.35c-13.85,0-27.06-.07-40.28.02-13.11.08-26.24-.38-39.33.29v40.39h0Z"/>
        <path class="cls-1" d="m222.15,221.69h-101.82v-20.04c29.03-1.17,93.89-.75,101.82.63v19.4h0Z"/>
        <path class="cls-1" d="m181.42,38.52h17.65c.76.83,1.59,1.73,2.77,3.01v37.7h20.31v20.35c-13.54,0-26.44,0-39.34-.01-.26,0-.56-.16-.78-.33-.24-.17-.41-.44-.61-.66v-60.05h0Z"/>
        <path class="cls-1" d="m262.88,79.23h38.7v20.02h-19.81c-.91,6.83.02,13.5-.59,20.68h-18.3v-40.7h0Z"/>
        <path class="cls-1" d="m262.88,119.93v40.7h-20.41c.19-13.99-.21-27.36.26-40.7,0,0,20.15,0,20.15,0Z"/>
        <path class="cls-1" d="m222.15,79.23v-19.99c12.7-.84,25.44-.06,37.88-.44.94.94,1.59,1.59,2.85,2.85v17.58h-40.73Z"/>
        <path class="cls-1" d="m40.73,260.54h-20.36v-38.85h20.36v38.85Z"/>
        <path class="cls-1" d="m79.6,260.54v20.02c-12.73.76-25.5.1-38.88.4v-20.42h38.88Z"/>
        <path class="cls-1" d="m79.6,79.23h-20.36v-20.35h20.36v20.35Z"/>
        <path class="cls-1" d="m99.97,99.58h-20.36v-20.35h20.36v20.35Z"/>
        <path class="cls-1" d="m120.33,119.93h-20.36v-20.35h20.36v20.35Z"/>
        <path class="cls-1" d="m120.33,140.28v-20.35h20.36c0,3.95.04,7.3,0,10.64-.04,3.26-.17,6.51-.26,9.71h-20.09Z"/>
        <path class="cls-1" d="m99.97,160.63v-20.35h20.36v20.35h-20.36Z"/>
        <path class="cls-1" d="m120.33,221.69v20.35h-20.36v-20.35h20.36Z"/>
        <path class="cls-1" d="m242.51,242.04h-20.36v-20.35h20.36v20.35Z"/>
        <path class="cls-1" d="m161.06,20.02h20.36v18.5h-20.36v-18.5Z"/>
        <path class="cls-1" d="m99.97,242.04v18.5h-20.36v-18.5h20.36Z"/>
        <path class="cls-1" d="m262.88,260.54h-20.36v-18.5h20.36v18.5Z"/>
      </g>
    </g>
  </g>
</svg>